<svg width="32" height="32" viewBox="0 0 32 32" fill="none" xmlns="http://www.w3.org/2000/svg">
<g clip-path="url(#clip0_106_8)">
<path d="M25 0H7C3.13401 0 0 3.13401 0 7V25C0 28.866 3.13401 32 7 32H25C28.866 32 32 28.866 32 25V7C32 3.13401 28.866 0 25 0Z" fill="#B752F1"/>
<path d="M16 12.4447V16.8891M16 24.8891C20.8889 24.8891 24.8889 20.8891 24.8889 16.0002C24.8889 11.1113 20.8889 7.11133 16 7.11133C11.1111 7.11133 7.11108 11.1113 7.11108 16.0002C7.11108 20.8891 11.1111 24.8891 16 24.8891Z" stroke="white" stroke-width="1.5" stroke-linecap="round" stroke-linejoin="round"/>
<path d="M15.9954 19.5557H16.0044" stroke="white" stroke-width="2" stroke-linecap="round" stroke-linejoin="round"/>
</g>
<defs>
<clipPath id="clip0_106_8">
<rect width="32" height="32" fill="white"/>
</clipPath>
</defs>
</svg>
