<svg width="32" height="32" viewBox="0 0 32 32" fill="none" xmlns="http://www.w3.org/2000/svg">
<g clip-path="url(#clip0_106_4)">
<path d="M25 0H7C3.13401 0 0 3.13401 0 7V25C0 28.866 3.13401 32 7 32H25C28.866 32 32 28.866 32 25V7C32 3.13401 28.866 0 25 0Z" fill="#B752F1"/>
<path d="M20.4444 21.7159H16.8889L12.9333 24.347C12.7998 24.436 12.6447 24.4871 12.4844 24.4948C12.3242 24.5025 12.1648 24.4666 12.0234 24.3908C11.882 24.3151 11.7637 24.2024 11.6813 24.0647C11.5989 23.9271 11.5555 23.7696 11.5555 23.6092V21.7159C8.88886 21.7159 7.11108 19.9381 7.11108 17.2714V11.9381C7.11108 9.27143 8.88886 7.49365 11.5555 7.49365H20.4444C23.1111 7.49365 24.8889 9.27143 24.8889 11.9381V17.2714C24.8889 19.9381 23.1111 21.7159 20.4444 21.7159Z" stroke="white" stroke-width="1.5" stroke-miterlimit="10" stroke-linecap="round" stroke-linejoin="round"/>
<path d="M16 15.4312V15.2445C16 14.64 16.3733 14.32 16.7466 14.0623C17.1111 13.8134 17.4755 13.4934 17.4755 12.9067C17.4755 12.0889 16.8177 11.4312 16 11.4312C15.1822 11.4312 14.5244 12.0889 14.5244 12.9067M15.9955 17.5556H16.0044" stroke="white" stroke-width="1.5" stroke-linecap="round" stroke-linejoin="round"/>
</g>
<defs>
<clipPath id="clip0_106_4">
<rect width="32" height="32" fill="white"/>
</clipPath>
</defs>
</svg>
