<svg width="18" height="20" viewBox="0 0 18 20" fill="none" xmlns="http://www.w3.org/2000/svg">
<path d="M16.9749 5.43368C16.9749 1.77117 16.1206 0.853271 12.6853 0.853271H5.81473C2.37943 0.853271 1.52515 1.77117 1.52515 5.43368V15.6669C1.52515 18.0843 2.85201 18.6569 4.4606 16.9301L4.46969 16.921C5.21492 16.1304 6.35093 16.194 6.99619 17.0574L7.91408 18.2843C8.65022 19.2567 9.84076 19.2567 10.5769 18.2843L11.4948 17.0574C12.1491 16.1849 13.2852 16.1213 14.0304 16.921C15.6481 18.6478 16.9658 18.0752 16.9658 15.6578V9.03257M5.61479 5.39732H12.8853M6.5236 9.03257H11.9765" stroke="#F26822" stroke-width="1.36322" stroke-linecap="round" stroke-linejoin="round"/>
</svg>
