<svg width="32" height="32" viewBox="0 0 32 32" fill="none" xmlns="http://www.w3.org/2000/svg">
<g clip-path="url(#clip0_106_12)">
<path d="M25 0H7C3.13401 0 0 3.13401 0 7V25C0 28.866 3.13401 32 7 32H25C28.866 32 32 28.866 32 25V7C32 3.13401 28.866 0 25 0Z" fill="#B752F1"/>
<path d="M23.2193 11.2571C23.2193 7.67547 22.3839 6.77783 19.0244 6.77783H12.3055C8.94602 6.77783 8.1106 7.67547 8.1106 11.2571V21.2645C8.1106 23.6285 9.40817 24.1884 10.9813 22.4998L10.9901 22.4909C11.7189 21.7177 12.8299 21.7799 13.4609 22.6242L14.3585 23.8241C15.0784 24.775 16.2427 24.775 16.9625 23.8241L17.8602 22.6242C18.5001 21.771 19.611 21.7088 20.3398 22.4909C21.9218 24.1796 23.2105 23.6196 23.2105 21.2556V14.7766M12.11 11.2216H19.22M12.9987 14.7766H18.3312" stroke="white" stroke-width="1.36322" stroke-linecap="round" stroke-linejoin="round"/>
</g>
<defs>
<clipPath id="clip0_106_12">
<rect width="32" height="32" fill="white"/>
</clipPath>
</defs>
</svg>
