<svg width="32" height="32" viewBox="0 0 32 32" fill="none" xmlns="http://www.w3.org/2000/svg">
<rect width="32" height="32" rx="7" fill="#F26822"/>
<path d="M15.6651 10.7236V13.6832M15.6829 6.77759C12.4123 6.77759 9.7638 9.42606 9.7638 12.6967V14.563C9.7638 15.1674 9.51495 16.0739 9.20388 16.5894L8.07517 18.4735C7.38195 19.6378 7.86187 20.9354 9.14167 21.362C13.391 22.7751 17.9836 22.7751 22.233 21.362C22.5134 21.2684 22.7691 21.1131 22.9814 20.9074C23.1937 20.7018 23.3571 20.451 23.4595 20.1737C23.5619 19.8965 23.6007 19.5997 23.573 19.3054C23.5453 19.0111 23.4518 18.7268 23.2995 18.4735L22.1707 16.5894C21.8597 16.0739 21.6108 15.1585 21.6108 14.563V12.6967C21.6019 9.44384 18.9357 6.77759 15.6829 6.77759Z" stroke="white" stroke-width="1.5" stroke-miterlimit="10" stroke-linecap="round"/>
<path d="M18.6246 21.7263C18.6246 23.3527 17.2915 24.6859 15.6651 24.6859C14.8563 24.6859 14.1098 24.3481 13.5765 23.8149C13.0433 23.2816 12.7056 22.5351 12.7056 21.7263" stroke="white" stroke-width="1.5" stroke-miterlimit="10"/>
</svg>
