<svg width="32" height="32" viewBox="0 0 32 32" fill="none" xmlns="http://www.w3.org/2000/svg">
<g clip-path="url(#clip0_106_22)">
<path d="M25 0H7C3.13401 0 0 3.13401 0 7V25C0 28.866 3.13401 32 7 32H25C28.866 32 32 28.866 32 25V7C32 3.13401 28.866 0 25 0Z" fill="#B752F1"/>
<path d="M18.3313 15.6648C18.3313 14.1895 17.1404 12.9985 15.665 12.9985C14.1897 12.9985 12.9988 14.1895 12.9988 15.6648C12.9983 16.1052 13.107 16.5388 13.3152 16.9269C13.5234 17.315 13.8246 17.6453 14.1919 17.8884C14.5591 18.1315 14.9809 18.2796 15.4195 18.3197C15.858 18.3597 16.2997 18.2903 16.7049 18.1177" stroke="white" stroke-width="1.5" stroke-miterlimit="10" stroke-linecap="round" stroke-linejoin="round"/>
<path d="M11.1147 23.2907L12.0834 23.8506C12.7855 24.2683 13.6921 24.0195 14.1098 23.3174L14.2075 23.1485C15.0074 21.7532 16.3228 21.7532 17.1315 23.1485L17.2293 23.3174C17.647 24.0195 18.5535 24.2683 19.2556 23.8506L20.7932 22.9708C21.6019 22.5086 21.8775 21.4688 21.4153 20.6689C20.6065 19.2736 21.2642 18.136 22.8729 18.136C23.7972 18.136 24.5615 17.3805 24.5615 16.4473V14.8831C24.5615 13.9588 23.806 13.1945 22.8729 13.1945C21.9752 13.1945 21.3709 12.839 21.1576 12.2791C20.9887 11.8436 21.0598 11.2748 21.4153 10.6616C21.8775 9.8528 21.6019 8.82185 20.7932 8.3597L20.0733 7.95088M17.1226 8.18284C16.3228 9.57818 15.0074 9.57818 14.1987 8.18284L14.1009 8.01398C14.0039 7.84604 13.8746 7.69894 13.7205 7.58115C13.5665 7.46336 13.3906 7.37721 13.2031 7.32764C13.0156 7.27808 12.8201 7.26609 12.628 7.29237C12.4358 7.31864 12.2507 7.38266 12.0834 7.48073L10.5459 8.36059C9.73713 8.82274 9.46161 9.86258 9.92376 10.6713C10.7325 12.0578 10.0749 13.1954 8.46621 13.1954C7.54191 13.1954 6.77759 13.9508 6.77759 14.884V16.4482C6.77759 17.3725 7.53303 18.1368 8.46621 18.1368C10.0749 18.1368 10.7325 19.2744 9.92376 20.6698" stroke="white" stroke-width="1.5" stroke-miterlimit="10" stroke-linecap="round" stroke-linejoin="round"/>
</g>
<defs>
<clipPath id="clip0_106_22">
<rect width="32" height="32" fill="white"/>
</clipPath>
</defs>
</svg>
