<svg width="23" height="22" viewBox="0 0 23 22" fill="none" xmlns="http://www.w3.org/2000/svg">
<g clip-path="url(#clip0_233_796)">
<path d="M5.9699 6.46273C6.20619 6.42638 6.45157 6.4082 6.70604 6.4082H15.7941C16.0304 6.4082 16.2576 6.41729 16.4757 6.45364C18.8205 6.72629 20.3382 8.46211 20.3382 10.9523V15.4963C20.3382 18.2227 18.5206 20.0404 15.7941 20.0404H7.27859C7.56032 19.8041 7.8057 19.5132 7.99655 19.1861C8.33281 18.6408 8.52366 17.9955 8.52366 17.3139C8.52366 15.3055 6.89689 13.6787 4.88842 13.6787C3.79785 13.6787 2.82542 14.1604 2.16199 14.9147V10.9523C2.16199 10.1616 2.31649 9.44363 2.59822 8.83473" stroke="#F26822" stroke-width="1.36322" stroke-linecap="round" stroke-linejoin="round"/>
<path d="M16.4769 6.45396C16.2588 6.41761 16.0316 6.40852 15.7953 6.40852H6.70721C6.45274 6.40852 6.20736 6.42669 5.97107 6.46305C6.0983 6.20858 6.28006 5.97229 6.49818 5.75417L9.45181 2.79145C10.0516 2.19762 10.8616 1.8645 11.7057 1.8645C12.5497 1.8645 13.3597 2.19762 13.9595 2.79145L15.5499 4.40005C16.1316 4.9726 16.4406 5.69965 16.4769 6.45396Z" stroke="#F26822" stroke-width="1.36322" stroke-linecap="round" stroke-linejoin="round"/>
<path d="M6.24449 17.2955H3.53623M4.88854 15.9687V18.686M8.52379 17.3137C8.52379 17.9953 8.33294 18.6406 7.99668 19.1859C7.67629 19.7243 7.2212 20.1701 6.67621 20.4792C6.13122 20.7884 5.51511 20.9503 4.88854 20.9489C4.26198 20.9503 3.64587 20.7884 3.10088 20.4792C2.55589 20.1701 2.1008 19.7243 1.78041 19.1859C1.43447 18.6228 1.25196 17.9746 1.2533 17.3137C1.2533 15.3052 2.88007 13.6785 4.88854 13.6785C6.89702 13.6785 8.52379 15.3052 8.52379 17.3137Z" stroke="#F26822" stroke-width="1.36322" stroke-miterlimit="10" stroke-linecap="round" stroke-linejoin="round"/>
<path d="M20.3384 11.4067H17.6119C16.6122 11.4067 15.7943 12.2247 15.7943 13.2244C15.7943 14.2241 16.6122 15.042 17.6119 15.042H20.3384" stroke="#F26822" stroke-width="1.36322" stroke-linecap="round" stroke-linejoin="round"/>
</g>
<defs>
<clipPath id="clip0_233_796">
<rect width="21.8114" height="21.8114" fill="white" transform="translate(0.34436 0.046875)"/>
</clipPath>
</defs>
</svg>
